<svg width="140" height="23" viewBox="0 0 140 23" fill="none" xmlns="http://www.w3.org/2000/svg">
<path d="M3.04 19.78H10.36V22H0.31V1.09H3.04V19.78ZM28.2592 13.15C28.2592 13.67 28.2292 14.22 28.1692 14.8H15.0292C15.1292 16.42 15.6792 17.69 16.6792 18.61C17.6992 19.51 18.9292 19.96 20.3692 19.96C21.5492 19.96 22.5292 19.69 23.3092 19.15C24.1092 18.59 24.6692 17.85 24.9892 16.93H27.9292C27.4892 18.51 26.6092 19.8 25.2892 20.8C23.9692 21.78 22.3292 22.27 20.3692 22.27C18.8092 22.27 17.4092 21.92 16.1692 21.22C14.9492 20.52 13.9892 19.53 13.2892 18.25C12.5892 16.95 12.2392 15.45 12.2392 13.75C12.2392 12.05 12.5792 10.56 13.2592 9.28C13.9392 8 14.8892 7.02 16.1092 6.34C17.3492 5.64 18.7692 5.29 20.3692 5.29C21.9292 5.29 23.3092 5.63 24.5092 6.31C25.7092 6.99 26.6292 7.93 27.2692 9.13C27.9292 10.31 28.2592 11.65 28.2592 13.15ZM25.4392 12.58C25.4392 11.54 25.2092 10.65 24.7492 9.91C24.2892 9.15 23.6592 8.58 22.8592 8.2C22.0792 7.8 21.2092 7.6 20.2492 7.6C18.8692 7.6 17.6892 8.04 16.7092 8.92C15.7492 9.8 15.1992 11.02 15.0592 12.58H25.4392ZM35.1927 7.81V17.5C35.1927 18.3 35.3627 18.87 35.7027 19.21C36.0427 19.53 36.6327 19.69 37.4727 19.69H39.4827V22H37.0227C35.5027 22 34.3627 21.65 33.6027 20.95C32.8427 20.25 32.4627 19.1 32.4627 17.5V7.81H30.3327V5.56H32.4627V1.42H35.1927V5.56H39.4827V7.81H35.1927ZM48.6105 22.27C47.3505 22.27 46.2205 22.06 45.2205 21.64C44.2205 21.2 43.4305 20.6 42.8505 19.84C42.2705 19.06 41.9505 18.17 41.8905 17.17H44.7105C44.7905 17.99 45.1705 18.66 45.8505 19.18C46.5505 19.7 47.4605 19.96 48.5805 19.96C49.6205 19.96 50.4405 19.73 51.0405 19.27C51.6405 18.81 51.9405 18.23 51.9405 17.53C51.9405 16.81 51.6205 16.28 50.9805 15.94C50.3405 15.58 49.3505 15.23 48.0105 14.89C46.7905 14.57 45.7905 14.25 45.0105 13.93C44.2505 13.59 43.5905 13.1 43.0305 12.46C42.4905 11.8 42.2205 10.94 42.2205 9.88C42.2205 9.04 42.4705 8.27 42.9705 7.57C43.4705 6.87 44.1805 6.32 45.1005 5.92C46.0205 5.5 47.0705 5.29 48.2505 5.29C50.0705 5.29 51.5405 5.75 52.6605 6.67C53.7805 7.59 54.3805 8.85 54.4605 10.45H51.7305C51.6705 9.59 51.3205 8.9 50.6805 8.38C50.0605 7.86 49.2205 7.6 48.1605 7.6C47.1805 7.6 46.4005 7.81 45.8205 8.23C45.2405 8.65 44.9505 9.2 44.9505 9.88C44.9505 10.42 45.1205 10.87 45.4605 11.23C45.8205 11.57 46.2605 11.85 46.7805 12.07C47.3205 12.27 48.0605 12.5 49.0005 12.76C50.1805 13.08 51.1405 13.4 51.8805 13.72C52.6205 14.02 53.2505 14.48 53.7705 15.1C54.3105 15.72 54.5905 16.53 54.6105 17.53C54.6105 18.43 54.3605 19.24 53.8605 19.96C53.3605 20.68 52.6505 21.25 51.7305 21.67C50.8305 22.07 49.7905 22.27 48.6105 22.27Z" fill="white"/>
<path d="M69.3418 21.2188C69.3418 20.7396 69.446 20.2396 69.6543 19.7188C69.8626 19.1771 70.0501 18.7188 70.2168 18.3438C70.3626 18.0521 70.5918 17.6042 70.9043 17C71.2168 16.375 71.571 15.6771 71.9668 14.9062C72.3626 14.1354 72.7793 13.3229 73.2168 12.4688C73.6751 11.6146 74.1022 10.8021 74.498 10.0312C74.8939 9.26042 75.248 8.57292 75.5605 7.96875C75.8939 7.34375 76.1335 6.88542 76.2793 6.59375C76.3001 6.57292 76.3418 6.5 76.4043 6.375C76.4876 6.25 76.571 6.125 76.6543 6C76.7585 5.875 76.8522 5.76042 76.9355 5.65625C77.0189 5.53125 77.071 5.44792 77.0918 5.40625C77.1126 5.36458 77.1022 5.32292 77.0605 5.28125C77.0189 5.23958 76.998 5.19792 76.998 5.15625C76.1022 5.26042 75.1647 5.39583 74.1855 5.5625C73.2272 5.72917 72.2689 5.92708 71.3105 6.15625C70.373 6.36458 69.4668 6.61458 68.5918 6.90625C67.7168 7.17708 66.9251 7.48958 66.2168 7.84375C65.9876 7.84375 65.7793 7.80208 65.5918 7.71875C65.4043 7.63542 65.3105 7.46875 65.3105 7.21875V7.125C65.3105 7.10417 65.321 7.07292 65.3418 7.03125C65.3835 6.92708 65.446 6.77083 65.5293 6.5625C65.6335 6.33333 65.7064 6.20833 65.748 6.1875L68.5918 4.96875L87.623 0.125C87.8522 0.708333 87.8314 1.17708 87.5605 1.53125C87.3105 1.86458 86.9043 2.14583 86.3418 2.375C85.7793 2.58333 85.123 2.77083 84.373 2.9375C83.6439 3.08333 82.9043 3.27083 82.1543 3.5C81.4251 3.70833 80.748 4 80.123 4.375C79.498 4.72917 79.0293 5.20833 78.7168 5.8125C77.3626 8.5 75.9668 11.1771 74.5293 13.8438C73.1126 16.5104 71.8105 19.2292 70.623 22C70.6022 22 70.5605 22 70.498 22C70.4564 22.0208 70.4251 22.0312 70.4043 22.0312C70.1335 22.0312 69.8835 21.9688 69.6543 21.8438C69.446 21.7188 69.3418 21.5104 69.3418 21.2188ZM87.9668 19.5938C87.9668 18.9688 88.0918 18.3958 88.3418 17.875C88.6126 17.3333 88.9043 16.8229 89.2168 16.3438C89.5293 15.8646 89.8105 15.3854 90.0605 14.9062C90.3314 14.4271 90.4668 13.9167 90.4668 13.375C90.4668 13.25 90.4564 13.1042 90.4355 12.9375C90.4355 12.75 90.4147 12.5729 90.373 12.4062C90.3522 12.2396 90.2897 12.1042 90.1855 12C90.1022 11.875 89.9876 11.8125 89.8418 11.8125C89.821 11.8125 89.7793 11.8229 89.7168 11.8438C89.6751 11.8438 89.6543 11.8542 89.6543 11.875C89.3626 12.2708 89.0085 12.7188 88.5918 13.2188C88.196 13.6979 87.7689 14.1771 87.3105 14.6562C86.8522 15.1354 86.4043 15.5938 85.9668 16.0312C85.5293 16.4688 85.1335 16.8333 84.7793 17.125C84.5293 17.3542 84.1855 17.6667 83.748 18.0625C83.3314 18.4583 82.9043 18.8542 82.4668 19.25C82.0501 19.625 81.6751 19.9583 81.3418 20.25C81.0293 20.5417 80.8522 20.6875 80.8105 20.6875L79.373 19.4688C79.5605 19.4688 79.748 19.4271 79.9355 19.3438C80.1022 19.2604 80.2689 19.1667 80.4355 19.0625C81.6855 18.2292 82.8105 17.2708 83.8105 16.1875C84.8314 15.1042 85.8314 13.9375 86.8105 12.6875C86.8522 12.625 86.9564 12.4479 87.123 12.1562C87.3105 11.8438 87.5085 11.5 87.7168 11.125C87.9251 10.7292 88.1335 10.3438 88.3418 9.96875C88.5501 9.57292 88.7064 9.26042 88.8105 9.03125C88.9355 8.76042 89.0085 8.54167 89.0293 8.375C89.071 8.20833 89.1022 8.08333 89.123 8C89.1647 7.89583 89.2272 7.82292 89.3105 7.78125C89.3939 7.73958 89.571 7.71875 89.8418 7.71875C89.8835 7.71875 89.9772 7.72917 90.123 7.75C90.2897 7.77083 90.3939 7.79167 90.4355 7.8125C90.7064 8.375 90.946 8.875 91.1543 9.3125C91.3626 9.75 91.5397 10.1667 91.6855 10.5625C91.8314 10.9375 91.9355 11.3229 91.998 11.7188C92.0814 12.1146 92.123 12.5521 92.123 13.0312C91.8522 13.7188 91.5501 14.4271 91.2168 15.1562C90.8835 15.8646 90.6022 16.5417 90.373 17.1875C90.1439 17.8333 89.998 18.4167 89.9355 18.9375C89.8939 19.4583 90.0085 19.875 90.2793 20.1875C90.571 20.4792 91.0501 20.6354 91.7168 20.6562C92.4043 20.6771 93.373 20.5 94.623 20.125C94.9564 20.2917 94.9876 20.5 94.7168 20.75C94.446 20.9792 94.0293 21.1979 93.4668 21.4062C92.9251 21.6146 92.321 21.7917 91.6543 21.9375C91.0085 22.0625 90.4668 22.0938 90.0293 22.0312C89.6335 22.0312 89.3001 21.9688 89.0293 21.8438C88.7793 21.6979 88.571 21.5104 88.4043 21.2812C88.2585 21.0521 88.1439 20.7917 88.0605 20.5C87.998 20.2083 87.9668 19.9062 87.9668 19.5938ZM93.4355 19.9688C93.623 18.7812 93.9772 17.6875 94.498 16.6875C95.0189 15.6875 95.6126 14.8229 96.2793 14.0938C96.9668 13.3438 97.7064 12.7292 98.498 12.25C99.2897 11.7708 100.061 11.4688 100.811 11.3438C101.561 11.1979 102.248 11.2292 102.873 11.4375C103.519 11.6458 104.04 12.0625 104.436 12.6875C104.436 13.1667 104.321 13.625 104.092 14.0625C103.883 14.5 103.644 14.9375 103.373 15.375C103.123 15.8125 102.883 16.2604 102.654 16.7188C102.446 17.1771 102.342 17.6667 102.342 18.1875C102.342 18.7292 102.456 19.1667 102.686 19.5C102.936 19.8125 103.363 19.9688 103.967 19.9688C104.467 19.9688 104.946 19.8958 105.404 19.75C105.883 19.6042 106.363 19.5312 106.842 19.5312C106.925 19.5312 107.061 19.5417 107.248 19.5625C107.456 19.5625 107.592 19.5625 107.654 19.5625C107.404 19.9167 107.081 20.2188 106.686 20.4688C106.29 20.7188 105.873 20.9375 105.436 21.125C104.998 21.2917 104.54 21.4167 104.061 21.5C103.602 21.5833 103.175 21.625 102.779 21.625C102.404 21.625 102.071 21.5417 101.779 21.375C101.488 21.2083 101.238 20.9896 101.029 20.7188C100.821 20.4479 100.654 20.1458 100.529 19.8125C100.425 19.4583 100.373 19.1146 100.373 18.7812C100.061 19.1354 99.7168 19.5104 99.3418 19.9062C98.9876 20.2812 98.6022 20.625 98.1855 20.9375C97.7897 21.25 97.3522 21.5104 96.873 21.7188C96.4147 21.9271 95.9355 22.0312 95.4355 22.0312C94.8939 22.0312 94.4251 21.8333 94.0293 21.4375C93.6335 21.0208 93.4355 20.5312 93.4355 19.9688ZM95.498 19C95.498 19.1667 95.498 19.3542 95.498 19.5625C95.5189 19.7708 95.6543 19.9062 95.9043 19.9688C96.4251 19.8438 97.0189 19.5729 97.6855 19.1562C98.3522 18.7188 98.9772 18.2188 99.5605 17.6562C100.144 17.0729 100.633 16.4583 101.029 15.8125C101.425 15.1458 101.623 14.5104 101.623 13.9062C101.623 13.8646 101.613 13.8021 101.592 13.7188C101.592 13.6146 101.592 13.5417 101.592 13.5C100.883 13.5 100.165 13.6458 99.4355 13.9375C98.7064 14.2292 98.0501 14.6354 97.4668 15.1562C96.8835 15.6562 96.4043 16.2396 96.0293 16.9062C95.6751 17.5729 95.498 18.2708 95.498 19ZM106.748 20.0312C106.748 19.9688 106.748 19.8854 106.748 19.7812C106.769 19.6562 106.779 19.5833 106.779 19.5625C106.842 18.9375 106.915 18.1458 106.998 17.1875C107.081 16.2083 107.165 15.2708 107.248 14.375C107.352 13.4792 107.436 12.7083 107.498 12.0625C107.561 11.3958 107.592 11.0625 107.592 11.0625L108.436 10.25C108.79 10.3542 109.05 10.5 109.217 10.6875C109.383 10.8542 109.498 11.0417 109.561 11.25C109.623 11.4583 109.654 11.6875 109.654 11.9375C109.654 12.1875 109.654 12.4375 109.654 12.6875C109.654 13.5625 109.571 14.4167 109.404 15.25C109.258 16.0625 109.186 16.8958 109.186 17.75C109.186 17.7917 109.186 17.8958 109.186 18.0625C109.206 18.2083 109.217 18.3021 109.217 18.3438L116.904 10.25C116.925 10.2292 116.977 10.2188 117.061 10.2188C117.165 10.2188 117.238 10.2188 117.279 10.2188C117.488 10.2188 117.686 10.2604 117.873 10.3438C118.061 10.4271 118.154 10.6042 118.154 10.875C118.154 10.8958 118.144 10.9167 118.123 10.9375C118.123 10.9375 118.123 10.9479 118.123 10.9688V11.0625C118.019 11.2292 117.831 11.5 117.561 11.875C117.311 12.25 117.029 12.6562 116.717 13.0938C116.425 13.5312 116.144 13.9479 115.873 14.3438C115.602 14.7188 115.415 14.9792 115.311 15.125C114.956 15.5625 114.54 16.0833 114.061 16.6875C113.602 17.2917 113.102 17.9062 112.561 18.5312C112.04 19.1354 111.488 19.7188 110.904 20.2812C110.342 20.8229 109.779 21.2604 109.217 21.5938C109.113 21.6562 108.956 21.7396 108.748 21.8438C108.561 21.9479 108.456 22 108.436 22C108.206 22 107.988 21.9375 107.779 21.8125C107.592 21.6667 107.415 21.4896 107.248 21.2812C107.102 21.0729 106.977 20.8646 106.873 20.6562C106.79 20.4271 106.748 20.2188 106.748 20.0312ZM119.404 20.375C119.05 19.5833 118.894 18.8125 118.936 18.0625C118.977 17.2917 119.144 16.5729 119.436 15.9062C119.748 15.2188 120.144 14.6042 120.623 14.0625C121.123 13.5 121.654 13.0208 122.217 12.625C122.779 12.2083 123.342 11.8958 123.904 11.6875C124.488 11.4792 124.998 11.3958 125.436 11.4375C125.873 11.4583 126.217 11.6146 126.467 11.9062C126.717 12.1979 126.8 12.6458 126.717 13.25C126.717 14.0625 126.456 14.7708 125.936 15.375C125.436 15.9792 124.873 16.5208 124.248 17C123.644 17.4792 123.081 17.9167 122.561 18.3125C122.061 18.6875 121.811 19.0417 121.811 19.375C121.811 19.5625 121.915 19.7083 122.123 19.8125C122.352 19.9167 122.613 20 122.904 20.0625C123.196 20.1042 123.488 20.1354 123.779 20.1562C124.071 20.1771 124.279 20.1979 124.404 20.2188C126.363 19.8021 127.831 19.5521 128.811 19.4688C129.79 19.3646 130.404 19.375 130.654 19.5C130.904 19.6042 130.852 19.7812 130.498 20.0312C130.165 20.2604 129.644 20.5104 128.936 20.7812C128.227 21.0312 127.404 21.2604 126.467 21.4688C125.529 21.6771 124.602 21.8021 123.686 21.8438C122.769 21.8646 121.915 21.7708 121.123 21.5625C120.352 21.3542 119.779 20.9583 119.404 20.375ZM124.873 13.25C124.456 13.25 124.061 13.3646 123.686 13.5938C123.311 13.8229 122.967 14.1146 122.654 14.4688C122.363 14.8021 122.113 15.1771 121.904 15.5938C121.696 15.9896 121.54 16.3646 121.436 16.7188C121.477 16.7396 121.508 16.75 121.529 16.75H121.623C121.915 16.75 122.248 16.625 122.623 16.375C122.998 16.125 123.352 15.8229 123.686 15.4688C124.019 15.0938 124.3 14.7083 124.529 14.3125C124.758 13.9167 124.873 13.5625 124.873 13.25ZM129.811 19.1562C129.811 19.0104 129.821 18.7917 129.842 18.5C129.883 18.1875 129.925 17.8854 129.967 17.5938C130.008 17.3021 130.05 17.0417 130.092 16.8125C130.133 16.5625 130.175 16.4062 130.217 16.3438L135.904 4.96875C135.988 4.80208 136.144 4.57292 136.373 4.28125C136.623 3.96875 136.883 3.65625 137.154 3.34375C137.446 3.01042 137.727 2.70833 137.998 2.4375C138.29 2.14583 138.529 1.91667 138.717 1.75C138.863 1.79167 138.967 1.86458 139.029 1.96875C139.092 2.07292 139.133 2.19792 139.154 2.34375C139.175 2.46875 139.175 2.59375 139.154 2.71875C139.154 2.84375 139.154 2.94792 139.154 3.03125C139.154 3.13542 139.154 3.28125 139.154 3.46875C139.154 3.65625 139.144 3.75 139.123 3.75C138.915 4.3125 138.592 4.97917 138.154 5.75C137.717 6.52083 137.227 7.34375 136.686 8.21875C136.144 9.09375 135.581 10.0104 134.998 10.9688C134.436 11.9062 133.915 12.8438 133.436 13.7812C132.977 14.6979 132.592 15.5833 132.279 16.4375C131.988 17.2917 131.842 18.0729 131.842 18.7812C131.842 19.1562 131.946 19.4583 132.154 19.6875C132.383 19.8958 132.623 20.0833 132.873 20.25C133.123 20.4167 133.352 20.5833 133.561 20.75C133.79 20.9167 133.904 21.1458 133.904 21.4375C133.904 21.625 133.821 21.7708 133.654 21.875C133.488 21.9583 133.29 22 133.061 22C132.186 22 131.425 21.7604 130.779 21.2812C130.133 20.7812 129.811 20.0729 129.811 19.1562Z" fill="#FFE20B"/>
</svg>
